<svg width="313" height="224" viewBox="0 0 313 224" fill="none" xmlns="http://www.w3.org/2000/svg">
<path d="M92.92 30.6398C95.7957 22.7389 103.306 17.4802 111.714 17.4802L122.493 17.4802C136.359 17.4802 146.018 31.2474 141.299 44.2861L88.1431 191.17C85.3426 198.909 78.0873 204.142 69.8602 204.357L58.6693 204.65C44.5698 205.019 34.5281 191.07 39.3521 177.816L92.92 30.6398Z" fill="#FFFFFF"/>
<path d="M32.2305 17C23.8225 17 16.3123 22.2587 13.4367 30.1596L9.75004 40.2885C5.00751 53.3185 14.641 67.1034 28.5072 67.1289L184.713 67.4157C192.943 67.4308 200.342 62.4029 203.358 54.7456L207.461 44.3299C212.63 31.2069 202.957 17 188.853 17L32.2305 17Z" fill="#FFFFFF"/>
<path d="M234.614 31.2868C237.49 23.3859 245 18.1272 253.408 18.1272L264.187 18.1272C278.053 18.1272 287.712 31.8944 282.994 44.933L229.837 191.817C227.037 199.556 219.782 204.789 211.554 205.004L200.364 205.297C186.264 205.666 176.222 191.717 181.046 178.463L234.614 31.2868Z" fill="#FFFFFF"/>
<path d="M202.202 205.63C244.705 205.135 300.205 169.013 310 126C319.657 83.5916 303.222 41.5358 276.091 21.7447C267.547 15.512 256.36 20.6279 252.335 30.4077L189.512 183.034C185.155 193.62 190.756 205.764 202.202 205.63Z" fill="#FFFFFF"/>
</svg>
