<svg width="316" height="189" viewBox="0 0 316 189" fill="none" xmlns="http://www.w3.org/2000/svg">
<rect x="85" width="40" height="189" rx="20" fill="white"/>
<rect width="250" height="40" rx="20" fill="white"/>
<path d="M295.346 94.5C295.346 137.557 264.164 169 229.764 169C218.502 169 213.335 168.376 210.85 167.629C209.833 164.481 209.112 158.284 209.014 145.186C208.964 138.635 209.046 131.661 209.14 123.551C209.236 115.296 209.346 105.863 209.346 94.5C209.346 87.5157 209.248 81.6061 209.156 76.0497C209.054 69.889 208.96 64.1626 209.013 57.8871C209.107 46.8962 209.734 38.6384 211.254 32.4446C212.719 26.4721 214.591 24.1673 215.967 23.0714C217.336 21.9813 220.84 20 229.764 20C264.164 20 295.346 51.4434 295.346 94.5ZM211.167 168.447C211.167 168.447 211.165 168.443 211.162 168.437C211.166 168.443 211.167 168.446 211.167 168.447Z" stroke="white" stroke-width="40"/>
</svg>
